#N canvas 493 314 650 450 12;
#X obj 181 35 loadbang;
#X obj 214 91 s bela_setDigital;
#X obj 141 303 print;
#X msg 214 58 in 21;
#X obj 70 174 r bela_digitalIn21;
#X msg 133 252 1;
#X msg 188 251 150;
#X obj 67 205 change;
#X obj 136 215 sel 1;
#X connect 0 0 3 0;
#X connect 3 0 1 0;
#X connect 4 0 7 0;
#X connect 5 0 2 0;
#X connect 6 0 2 0;
#X connect 7 0 8 0;
#X connect 8 0 5 0;
#X connect 8 1 6 0;
