#N canvas 493 314 650 450 12;
#X obj 181 35 loadbang;
#X msg 214 58 in 18;
#X obj 214 91 s bela_setDigital;
#X obj 70 174 r bela_digitalIn18;
#X obj 137 265 + 1;
#X msg 198 331 60;
#X msg 198 364 tempo \$1 permin;
#X obj 182 422 print;
#X msg 280 331 150;
#X msg 327 331 200;
#X msg 232 331 120;
#X obj 79 298 % 5;
#X obj 261 285 sel 0 1 2 3 4;
#X obj 76 265 i;
#X msg 373 333 120000;
#X obj 134 219 sel 1;
#X connect 0 0 1 0;
#X connect 1 0 2 0;
#X connect 3 0 15 0;
#X connect 4 0 13 1;
#X connect 5 0 6 0;
#X connect 6 0 7 0;
#X connect 8 0 6 0;
#X connect 9 0 6 0;
#X connect 10 0 6 0;
#X connect 11 0 12 0;
#X connect 12 0 5 0;
#X connect 12 1 10 0;
#X connect 12 2 8 0;
#X connect 12 3 9 0;
#X connect 12 4 14 0;
#X connect 13 0 4 0;
#X connect 13 0 11 0;
#X connect 14 0 6 0;
#X connect 15 0 13 0;
