#N canvas 70 25 1165 784 16;
#X obj 31 559 catch~ \$0-output;
#X obj 265 758 dac~ 1 2;
#X obj 31 206 bng 24 250 50 0 empty empty empty 17 7 0 10 -4034 -1
-1;
#X obj 31 264 line~;
#X text 128 248 <- Ramp Generator;
#X obj 31 372 -~ 0.25;
#X obj 31 401 cos~;
#X obj 32 469 throw~ \$0-output;
#X obj 31 298 sqrt~;
#X obj 31 436 lop~ 1000;
#X obj 341 232 bng 24 250 50 0 empty empty empty 17 7 0 10 -4034 -1
-1;
#X obj 341 261 t b b;
#X msg 342 290 1 \, 0 100;
#X obj 341 319 line~;
#X obj 341 348 pow~ 4;
#X obj 341 377 *~;
#X obj 521 319 line~;
#X obj 521 348 pow~ 4;
#X obj 521 377 *~;
#X obj 625 295 noise~;
#X msg 521 290 1 \, 0 200;
#X obj 341 406 +~;
#X obj 341 469 throw~ \$0-output;
#X obj 625 353 bp~ 5000 2;
#X obj 341 435 lop~ 4000;
#X obj 415 353 osc~ 200;
#X obj 761 264 bng 24 250 50 0 empty empty empty 17 7 0 10 -4034 -1
-1;
#X obj 761 322 line~;
#X obj 761 351 pow~ 4;
#X obj 761 380 *~;
#X obj 888 356 hip~ 8000;
#X obj 888 327 hip~ 8000;
#X obj 761 443 throw~ \$0-output;
#X obj 888 153 phasor~ 350;
#X obj 888 182 *~ 2;
#X obj 888 211 -~ 1;
#X obj 1008 182 *~ 2;
#X obj 1008 211 -~ 1;
#X obj 888 240 +~;
#X obj 888 298 hip~ 8000;
#X obj 761 409 *~ 4;
#X obj 1062 216 noise~;
#X obj 1062 245 /~ 4;
#X msg 761 293 1 \, 0 100;
#X obj 279 33 tgl 24 0 empty empty empty 17 7 0 10 -4032 -1 -1 0 1
;
#X obj 312 153 random 3;
#X obj 312 182 sel 0 1 2;
#X obj 426 95 i;
#X obj 476 95 + 1;
#X obj 426 154 sel 0;
#X text 625 270 // SNARES;
#X text 415 328 // DRUM;
#X text 888 386 // 3-Pole Highpass;
#X obj 888 269 +~;
#X text 105 389 <- Sine Waveshaper;
#X text 31 529 // MASTER OUTPUT;
#X text 888 123 // DETUNED OSCILLATORS;
#X text 371 231 –– SNARE DRUM –––––––––––––––––––––
;
#X text 761 93 –– HIHAT –––––––––––––––––––––––––––
;
#X text 91 298 <- Pitch Bend;
#X text 91 332 <- Pitch;
#X text 31 175 –– BASS DRUM –––––––––––––
;
#X text 526 182 <- Pattern Seed;
#X text 466 124 <- Number of Steps;
#X obj 31 332 *~ 20;
#X obj 625 324 hip~ 2000;
#X obj 1008 153 phasor~ 100;
#X obj 86 18 loadbang;
#X obj 658 89 snapshot~;
#X msg 442 187 seed \$1;
#X obj 678 137 print ANALOG-INPUT;
#X obj 799 49 lop~ 2;
#X obj 660 53 *~ 10;
#X obj 656 5 adc~ 3 4;
#X obj 313 64 metro 150;
#X obj 81 602 /~ 5;
#X text 688 576 DISTORT;
#X obj 177 639 +~;
#X obj 302 626 delread~ mydelay 0;
#X floatatom 535 599 5 0 0 0 - - -;
#X obj 684 641 clip~ -0.5 0.5;
#X text 322 553 DELAY;
#X obj 316 666 *~ 0.2;
#X msg 32 235 0 \, 1 200;
#X obj 458 715 +~;
#X obj 624 700 /~ 5;
#X obj 684 605 *~ 20;
#X obj 297 592 delwrite~ mydelay 500;
#X obj 426 124 % 8;
#X connect 0 0 75 0;
#X connect 2 0 83 0;
#X connect 3 0 8 0;
#X connect 5 0 6 0;
#X connect 6 0 9 0;
#X connect 8 0 64 0;
#X connect 9 0 7 0;
#X connect 10 0 11 0;
#X connect 11 0 12 0;
#X connect 11 1 20 0;
#X connect 12 0 13 0;
#X connect 13 0 14 0;
#X connect 14 0 15 0;
#X connect 15 0 21 0;
#X connect 16 0 17 0;
#X connect 17 0 18 0;
#X connect 18 0 21 1;
#X connect 19 0 65 0;
#X connect 20 0 16 0;
#X connect 21 0 24 0;
#X connect 23 0 18 1;
#X connect 24 0 22 0;
#X connect 25 0 15 1;
#X connect 26 0 43 0;
#X connect 27 0 28 0;
#X connect 28 0 29 0;
#X connect 29 0 40 0;
#X connect 30 0 29 1;
#X connect 31 0 30 0;
#X connect 33 0 34 0;
#X connect 34 0 35 0;
#X connect 35 0 38 0;
#X connect 36 0 37 0;
#X connect 37 0 38 1;
#X connect 38 0 53 0;
#X connect 39 0 31 0;
#X connect 40 0 32 0;
#X connect 41 0 42 0;
#X connect 42 0 53 1;
#X connect 43 0 27 0;
#X connect 44 0 74 0;
#X connect 45 0 46 0;
#X connect 46 0 2 0;
#X connect 46 1 10 0;
#X connect 46 2 26 0;
#X connect 47 0 48 0;
#X connect 47 0 88 0;
#X connect 48 0 47 1;
#X connect 49 0 68 0;
#X connect 53 0 39 0;
#X connect 64 0 5 0;
#X connect 65 0 23 0;
#X connect 66 0 36 0;
#X connect 67 0 44 0;
#X connect 68 0 70 0;
#X connect 68 0 69 0;
#X connect 69 0 45 0;
#X connect 71 0 72 0;
#X connect 72 0 68 0;
#X connect 73 0 71 0;
#X connect 74 0 45 0;
#X connect 74 0 47 0;
#X connect 75 0 77 0;
#X connect 75 0 87 0;
#X connect 77 0 84 0;
#X connect 77 0 86 0;
#X connect 78 0 82 0;
#X connect 79 0 78 0;
#X connect 80 0 85 0;
#X connect 82 0 77 1;
#X connect 83 0 3 0;
#X connect 84 0 1 0;
#X connect 84 0 1 1;
#X connect 85 0 84 1;
#X connect 86 0 80 0;
#X connect 88 0 49 0;
