#N canvas 146 25 1165 784 10;
#X obj 27 604 catch~ \$0-output;
#X obj 309 761 dac~ 1 2;
#X obj 34 239 bng 24 250 50 0 empty empty empty 17 7 0 10 -4034 -1
-1;
#X obj 34 297 line~;
#X text 131 281 <- Ramp Generator;
#X obj 34 405 -~ 0.25;
#X obj 34 434 cos~;
#X obj 35 502 throw~ \$0-output;
#X obj 34 331 sqrt~;
#X obj 34 469 lop~ 1000;
#X obj 341 232 bng 24 250 50 0 empty empty empty 17 7 0 10 -4034 -1
-1;
#X obj 341 261 t b b;
#X obj 341 319 line~;
#X obj 341 377 *~;
#X obj 521 319 line~;
#X obj 521 348 pow~ 4;
#X obj 521 377 *~;
#X obj 625 295 noise~;
#X msg 521 290 1 \, 0 200;
#X obj 341 406 +~;
#X obj 341 469 throw~ \$0-output;
#X obj 625 353 bp~ 5000 2;
#X obj 341 435 lop~ 4000;
#X obj 415 361 osc~ 200;
#X obj 761 264 bng 24 250 50 0 empty empty empty 17 7 0 10 -4034 -1
-1;
#X obj 761 322 line~;
#X obj 761 351 pow~ 4;
#X obj 761 380 *~;
#X obj 888 356 hip~ 8000;
#X obj 888 327 hip~ 8000;
#X obj 761 443 throw~ \$0-output;
#X obj 888 153 phasor~ 350;
#X obj 888 182 *~ 2;
#X obj 888 211 -~ 1;
#X obj 1008 182 *~ 2;
#X obj 1008 211 -~ 1;
#X obj 888 240 +~;
#X obj 888 298 hip~ 8000;
#X obj 761 409 *~ 4;
#X obj 1062 216 noise~;
#X obj 1062 245 /~ 4;
#X msg 761 293 1 \, 0 100;
#X obj 335 67 tgl 24 0 empty empty empty 17 7 0 10 -4032 -1 -1 0 1
;
#X obj 312 153 random 3;
#X obj 312 182 sel 0 1 2;
#X obj 426 95 i;
#X obj 476 95 + 1;
#X obj 426 154 sel 0;
#X text 625 270 // SNARES;
#X text 415 328 // DRUM;
#X text 888 386 // 3-Pole Highpass;
#X obj 888 269 +~;
#X text 108 422 <- Sine Waveshaper;
#X text 27 574 // MASTER OUTPUT;
#X text 888 123 // DETUNED OSCILLATORS;
#X text 371 231 –– SNARE DRUM –––––––––––––––––––––
;
#X text 761 93 –– HIHAT –––––––––––––––––––––––––––
;
#X text 94 331 <- Pitch Bend;
#X text 94 365 <- Pitch;
#X text 23 217 –– BASS DRUM –––––––––––––
;
#X text 526 182 <- Pattern Seed;
#X text 466 124 <- Number of Steps;
#X obj 34 365 *~ 20;
#X obj 625 324 hip~ 2000;
#X obj 1008 153 phasor~ 100;
#X obj 24 11 loadbang;
#X obj 679 60 snapshot~;
#X msg 442 187 seed \$1;
#X obj 77 647 /~ 5;
#X text 688 576 DISTORT;
#X obj 151 706 +~;
#X obj 684 641 clip~ -0.5 0.5;
#X text 322 553 DELAY;
#X msg 35 268 0 \, 1 200;
#X obj 458 715 +~;
#X obj 624 700 /~ 5;
#X obj 425 126 % 8;
#X obj 971 59 *~ 10;
#X obj 969 29 lop~ 2;
#X text 916 5 SEED;
#X obj 535 15 snapshot~;
#X obj 664 136 dac~ 27;
#X obj 509 77 print STEPS;
#X obj 609 9 lop~ 2;
#X obj 796 0 adc~ 3;
#X obj 669 20 adc~ 4;
#X obj 655 98 print SEED;
#X obj 500 49 expr pow(2 \, $f1);
#X obj 495 14 int;
#X obj 613 35 *~ 5;
#X text 443 21 STEP SIZE;
#X obj 496 534 adc~ 5;
#X obj 496 562 lop~ 2;
#X obj 314 641 delread4~ mydelay;
#X obj 790 587 lop~ 2;
#X obj 788 559 adc~ 6;
#X obj 684 605 *~;
#X obj 257 323 adc~ 7;
#X obj 262 350 lop~ 2;
#X obj 104 390 *~;
#X obj 262 384 *~ 3;
#X text 131 395 Knob modifier;
#X obj 535 423 adc~ 8;
#X obj 538 452 lop~ 2;
#X msg 344 290 1 \, 0 100;
#X obj 341 348 pow~ 4;
#X obj 466 409 *~;
#X obj 539 482 *~ 3;
#X obj 1099 61 adc~ 9;
#X obj 1101 88 lop~ 2;
#X obj 964 190 *~;
#X obj 1089 117 *~ 3;
#X obj 1076 185 *~;
#X obj 402 746 *~;
#X obj 749 697 adc~ 10;
#X text 811 713 VOLUME;
#X obj 750 724 lop~ 2;
#X obj 360 721 *~ 2;
#X obj 795 617 *~ 30;
#X obj 563 527 snapshot~;
#X obj 561 652 print DELAY;
#X obj 297 592 delwrite~ mydelay 1000;
#X obj 447 664 *~ 0.7;
#X obj 459 587 *~ 1000;
#X obj 580 553 expr if($f1 > 20 \, 1 \, 0);
#X obj 518 665 *~;
#X obj 13 88 s bela_setDigital;
#X obj 11 116 r bela_digitalIn18;
#X text 103 57 ON/OFF SWITCH;
#X obj 158 131 metro 150;
#X msg 13 55 in 18 \, in 21;
#X obj 16 161 r bela_digitalIn21;
#X msg 166 166 1;
#X msg 220 167 150;
#X obj 14 184 change;
#X obj 77 186 sel 1;
#X connect 0 0 68 0;
#X connect 2 0 73 0;
#X connect 3 0 8 0;
#X connect 5 0 6 0;
#X connect 6 0 9 0;
#X connect 8 0 62 0;
#X connect 9 0 7 0;
#X connect 10 0 11 0;
#X connect 11 0 104 0;
#X connect 11 1 18 0;
#X connect 12 0 105 0;
#X connect 13 0 19 0;
#X connect 14 0 15 0;
#X connect 15 0 16 0;
#X connect 16 0 106 0;
#X connect 17 0 63 0;
#X connect 18 0 14 0;
#X connect 19 0 22 0;
#X connect 21 0 16 1;
#X connect 22 0 20 0;
#X connect 23 0 13 1;
#X connect 24 0 41 0;
#X connect 25 0 26 0;
#X connect 26 0 27 0;
#X connect 27 0 38 0;
#X connect 28 0 27 1;
#X connect 29 0 28 0;
#X connect 31 0 32 0;
#X connect 32 0 110 0;
#X connect 33 0 36 0;
#X connect 34 0 112 0;
#X connect 35 0 36 1;
#X connect 36 0 51 0;
#X connect 37 0 29 0;
#X connect 38 0 30 0;
#X connect 39 0 40 0;
#X connect 40 0 51 1;
#X connect 41 0 25 0;
#X connect 42 0 129 0;
#X connect 43 0 44 0;
#X connect 44 0 2 0;
#X connect 44 1 10 0;
#X connect 44 2 24 0;
#X connect 45 0 46 0;
#X connect 45 0 76 0;
#X connect 46 0 45 1;
#X connect 47 0 66 0;
#X connect 47 0 80 0;
#X connect 47 0 119 0;
#X connect 51 0 37 0;
#X connect 62 0 99 0;
#X connect 63 0 21 0;
#X connect 64 0 34 0;
#X connect 65 0 130 0;
#X connect 66 0 67 0;
#X connect 66 0 86 0;
#X connect 67 0 43 0;
#X connect 68 0 70 0;
#X connect 68 0 121 0;
#X connect 70 0 74 0;
#X connect 70 0 96 0;
#X connect 71 0 75 0;
#X connect 73 0 3 0;
#X connect 74 0 117 0;
#X connect 75 0 74 1;
#X connect 76 0 47 0;
#X connect 77 0 66 0;
#X connect 78 0 77 0;
#X connect 80 0 88 0;
#X connect 83 0 89 0;
#X connect 84 0 78 0;
#X connect 85 0 83 0;
#X connect 87 0 82 0;
#X connect 87 0 76 1;
#X connect 88 0 87 0;
#X connect 89 0 80 0;
#X connect 91 0 92 0;
#X connect 92 0 123 0;
#X connect 93 0 122 0;
#X connect 94 0 118 0;
#X connect 95 0 94 0;
#X connect 96 0 71 0;
#X connect 97 0 98 0;
#X connect 98 0 100 0;
#X connect 99 0 5 0;
#X connect 100 0 99 1;
#X connect 102 0 103 0;
#X connect 103 0 107 0;
#X connect 104 0 12 0;
#X connect 105 0 13 0;
#X connect 106 0 19 1;
#X connect 107 0 106 1;
#X connect 108 0 109 0;
#X connect 109 0 111 0;
#X connect 110 0 33 0;
#X connect 111 0 110 1;
#X connect 111 0 112 1;
#X connect 112 0 35 0;
#X connect 113 0 1 0;
#X connect 113 0 1 1;
#X connect 114 0 116 0;
#X connect 116 0 113 1;
#X connect 117 0 113 0;
#X connect 118 0 96 1;
#X connect 119 0 120 0;
#X connect 119 0 124 0;
#X connect 122 0 125 0;
#X connect 123 0 93 0;
#X connect 123 0 119 0;
#X connect 124 0 125 1;
#X connect 125 0 70 1;
#X connect 127 0 42 0;
#X connect 129 0 43 0;
#X connect 129 0 45 0;
#X connect 130 0 126 0;
#X connect 131 0 134 0;
#X connect 132 0 129 1;
#X connect 133 0 129 1;
#X connect 134 0 135 0;
#X connect 135 0 132 0;
#X connect 135 1 133 0;
